<svg width="17" height="17" viewBox="0 0 17 17" fill="none" xmlns="http://www.w3.org/2000/svg">
<path d="M13.5983 13.494H3.45512V3.68892H9.55027L10.4724 2.79755H3.45512C3.21056 2.79755 2.97601 2.89146 2.80308 3.05862C2.63016 3.22579 2.533 3.45251 2.533 3.68892V13.494C2.533 13.7304 2.63016 13.9572 2.80308 14.1243C2.97601 14.2915 3.21056 14.3854 3.45512 14.3854H13.5983C13.8429 14.3854 14.0774 14.2915 14.2504 14.1243C14.4233 13.9572 14.5205 13.7304 14.5205 13.494V6.80873L13.5983 7.70011V13.494Z" fill="#777777" stroke="#777777" stroke-width="0.342499"/>
<path d="M9.40011 9.2212L7.72752 9.59057L8.11597 7.93525L12.8321 3.19727L14.1208 4.48322L9.40011 9.2212Z" fill="#777777" stroke="#777777" stroke-width="0.342499"/>
<path d="M14.6055 3.75523L13.563 2.71511L14.0283 2.24191L15.0767 3.28801L14.6055 3.75523Z" fill="#777777" stroke="#777777" stroke-width="0.342499"/>
</svg>
