<svg width="19" height="21" viewBox="0 0 19 21" fill="none" xmlns="http://www.w3.org/2000/svg">
<path d="M9.49997 2C9.99724 2 10.4741 2.21072 10.8258 2.58579C11.1774 2.96087 11.3749 3.46958 11.3749 4.00002V5.00002H7.625V4.00002C7.625 3.46958 7.82254 2.96087 8.17417 2.58579C8.52579 2.21072 9.00269 2 9.49997 2Z" stroke="#58B310" stroke-width="3" stroke-linecap="round" stroke-linejoin="round"/>
<path d="M10.1761 5.00302L8.80178 5.00002C5.66683 4.99202 2.94532 7.70904 2.92375 11.0001V14.7901C2.92375 15.5801 2.83001 16.3511 2.42595 17.0081L2.15689 17.4461C1.74721 18.1101 2.18783 19.0001 2.92375 19.0001H16.0766C16.8126 19.0001 17.2523 18.1101 16.8435 17.4461L16.5745 17.0081C16.1713 16.3511 16.0766 15.5791 16.0766 14.7891V11.0011C16.0391 7.70904 13.3111 5.01102 10.1761 5.00302V5.00302Z" stroke="#58B310" stroke-width="3" stroke-linecap="round" stroke-linejoin="round"/>
<path d="M12.3124 16.4501C12.3124 17.1264 12.0161 17.775 11.4887 18.2532C10.9612 18.7315 10.2459 19.0001 9.49995 19.0001C8.75404 19.0001 8.03868 18.7315 7.51125 18.2532C6.98381 17.775 6.6875 17.1264 6.6875 16.4501" stroke="#58B310" stroke-width="3" stroke-linecap="round" stroke-linejoin="round"/>
</svg>
