<svg width="28" height="24" viewBox="0 0 28 24" fill="none" xmlns="http://www.w3.org/2000/svg">
<path d="M3.51208 15.3775C3.51208 19.7725 5.61209 21.5344 10.8504 21.5344H17.1388C22.3771 21.5344 24.4771 19.7725 24.4771 15.3775V10.9825" stroke="#58B310" stroke-width="1.5" stroke-linecap="round" stroke-linejoin="round"/>
<path d="M14.0004 11.746C16.1354 11.746 17.7104 10.2875 17.5004 8.49627L16.7304 1.95764H11.2821L10.5004 8.49627C10.2904 10.2875 11.8654 11.746 14.0004 11.746Z" stroke="#58B310" stroke-width="1.5" stroke-linecap="round" stroke-linejoin="round"/>
<path d="M21.3621 11.746C23.7188 11.746 25.4454 10.1407 25.2121 8.17325L24.8854 5.48145C24.4654 2.93648 23.2988 1.95764 20.2421 1.95764H16.6838L17.5004 8.81928C17.6988 10.4344 19.4371 11.746 21.3621 11.746Z" stroke="#58B310" stroke-width="1.5" stroke-linecap="round" stroke-linejoin="round"/>
<path d="M6.58041 11.746C8.50541 11.746 10.2437 10.4344 10.4304 8.81928L10.6871 6.65605L11.2471 1.95764H7.68875C4.63208 1.95764 3.46541 2.93648 3.04541 5.48145L2.73041 8.17325C2.49708 10.1407 4.22375 11.746 6.58041 11.746Z" stroke="#58B310" stroke-width="1.5" stroke-linecap="round" stroke-linejoin="round"/>
<path d="M14.0004 16.6403C12.0521 16.6403 11.0837 17.4527 11.0837 19.0873V21.5344H16.9171V19.0873C16.9171 17.4527 15.9487 16.6403 14.0004 16.6403Z" stroke="#10B981" stroke-width="1.5" stroke-linecap="round" stroke-linejoin="round"/>
</svg>
