<svg xmlns="http://www.w3.org/2000/svg" xmlns:xlink="http://www.w3.org/1999/xlink" viewBox="0,0,256,256" width="48px" height="48px"><g fill="#58b310" fill-rule="nonzero" stroke="none" stroke-width="1" stroke-linecap="butt" stroke-linejoin="miter" stroke-miterlimit="10" stroke-dasharray="" stroke-dashoffset="0" font-family="none" font-weight="none" font-size="none" text-anchor="none" style="mix-blend-mode: normal"><g transform="scale(5.33333,5.33333)"><path d="M24,3c-11.58614,0 -21,9.41387 -21,21c0,11.58613 9.41386,21 21,21c11.58614,0 21,-9.41387 21,-21c0,-11.58613 -9.41386,-21 -21,-21zM24,5c10.50526,0 19,8.49474 19,19c0,10.50526 -8.49474,19 -19,19c-10.50526,0 -19,-8.49474 -19,-19c0,-10.50526 8.49474,-19 19,-19zM23.98438,7.98633c-0.55152,0.00862 -0.99193,0.46214 -0.98437,1.01367v13.26953c-0.78227,0.45329 -1.16316,1.37503 -0.92907,2.24831c0.2341,0.87329 1.02495,1.48092 1.92907,1.48216c0.90412,-0.00123 1.69497,-0.60887 1.92907,-1.48216c0.2341,-0.87329 -0.14679,-1.79502 -0.92907,-2.24831v-13.26953c0.0037,-0.2703 -0.10218,-0.53059 -0.29351,-0.72155c-0.19133,-0.19097 -0.45182,-0.29634 -0.72212,-0.29212zM27.73242,26.23633c-0.42534,-0.01453 -0.81329,0.24171 -0.96686,0.63863c-0.15357,0.39692 -0.03913,0.84755 0.28522,1.12309l5.29102,4.62891c0.26622,0.25212 0.64905,0.33835 0.99765,0.22471c0.3486,-0.11364 0.60707,-0.40892 0.67356,-0.76949c0.06649,-0.36057 -0.06966,-0.72862 -0.3548,-0.95912l-5.28906,-4.62891c-0.17514,-0.15842 -0.4007,-0.24975 -0.63672,-0.25781z"></path></g></g></svg>