<svg width="30" height="30" viewBox="0 0 30 30" fill="none" xmlns="http://www.w3.org/2000/svg">
<circle cx="15" cy="15" r="15" fill="#58B310"/>
<path d="M14.9999 8.33337C15.884 8.33337 16.7318 8.68456 17.3569 9.30968C17.9821 9.93481 18.3333 10.7827 18.3333 11.6667C18.3333 12.5508 17.9821 13.3986 17.3569 14.0237C16.7318 14.6489 15.884 15 14.9999 15C14.1159 15 13.268 14.6489 12.6429 14.0237C12.0178 13.3986 11.6666 12.5508 11.6666 11.6667C11.6666 10.7827 12.0178 9.93481 12.6429 9.30968C13.268 8.68456 14.1159 8.33337 14.9999 8.33337ZM14.9999 16.6667C18.6833 16.6667 21.6666 18.1584 21.6666 20V21.6667H8.33325V20C8.33325 18.1584 11.3166 16.6667 14.9999 16.6667Z" fill="white"/>
</svg>
