<svg width="28" height="28" viewBox="0 0 28 28" fill="none" xmlns="http://www.w3.org/2000/svg">
<circle cx="14" cy="14" r="14" fill="#D9D9D9"/>
<path d="M13.6667 7C14.5507 7 15.3986 7.35119 16.0237 7.97631C16.6488 8.60143 17 9.44928 17 10.3333C17 11.2174 16.6488 12.0652 16.0237 12.6904C15.3986 13.3155 14.5507 13.6667 13.6667 13.6667C12.7826 13.6667 11.9348 13.3155 11.3096 12.6904C10.6845 12.0652 10.3333 11.2174 10.3333 10.3333C10.3333 9.44928 10.6845 8.60143 11.3096 7.97631C11.9348 7.35119 12.7826 7 13.6667 7ZM13.6667 15.3333C17.35 15.3333 20.3333 16.825 20.3333 18.6667V20.3333H7V18.6667C7 16.825 9.98333 15.3333 13.6667 15.3333Z" fill="white"/>
</svg>
